<?xml version="1.0" standalone="no"?>
<!DOCTYPE svg PUBLIC "-//W3C//DTD SVG 1.1//EN"
   "http://www.w3.org/Graphics/SVG/1.1/DTD/svg11.dtd">
<svg width="287" height="287" version="1.1"
   xmlns="http://www.w3.org/2000/svg">
   <desc>Zint Generated Symbol
   </desc>

   <g id="barcode" fill="#000000">
      <rect x="0" y="0" width="287" height="287" fill="#FFFFFF" />
      <rect x="0.00" y="0.00" width="49.00" height="7.00" />
      <rect x="70.00" y="0.00" width="21.00" height="7.00" />
      <rect x="98.00" y="0.00" width="21.00" height="7.00" />
      <rect x="140.00" y="0.00" width="7.00" height="14.00" />
      <rect x="154.00" y="0.00" width="7.00" height="7.00" />
      <rect x="196.00" y="0.00" width="35.00" height="7.00" />
      <rect x="238.00" y="0.00" width="49.00" height="7.00" />
      <rect x="0.00" y="7.00" width="7.00" height="35.00" />
      <rect x="42.00" y="7.00" width="7.00" height="35.00" />
      <rect x="56.00" y="7.00" width="14.00" height="7.00" />
      <rect x="77.00" y="7.00" width="14.00" height="7.00" />
      <rect x="98.00" y="7.00" width="14.00" height="7.00" />
      <rect x="126.00" y="7.00" width="7.00" height="7.00" />
      <rect x="168.00" y="7.00" width="7.00" height="7.00" />
      <rect x="189.00" y="7.00" width="14.00" height="21.00" />
      <rect x="210.00" y="7.00" width="7.00" height="14.00" />
      <rect x="238.00" y="7.00" width="7.00" height="35.00" />
      <rect x="280.00" y="7.00" width="7.00" height="35.00" />
      <rect x="14.00" y="14.00" width="21.00" height="21.00" />
      <rect x="63.00" y="14.00" width="28.00" height="7.00" />
      <rect x="98.00" y="14.00" width="7.00" height="7.00" />
      <rect x="140.00" y="14.00" width="14.00" height="7.00" />
      <rect x="161.00" y="14.00" width="14.00" height="7.00" />
      <rect x="224.00" y="14.00" width="7.00" height="7.00" />
      <rect x="252.00" y="14.00" width="21.00" height="21.00" />
      <rect x="56.00" y="21.00" width="21.00" height="7.00" />
      <rect x="84.00" y="21.00" width="21.00" height="7.00" />
      <rect x="112.00" y="21.00" width="7.00" height="7.00" />
      <rect x="133.00" y="21.00" width="7.00" height="7.00" />
      <rect x="154.00" y="21.00" width="7.00" height="7.00" />
      <rect x="168.00" y="21.00" width="14.00" height="7.00" />
      <rect x="217.00" y="21.00" width="7.00" height="7.00" />
      <rect x="77.00" y="28.00" width="7.00" height="14.00" />
      <rect x="112.00" y="28.00" width="14.00" height="7.00" />
      <rect x="140.00" y="28.00" width="28.00" height="7.00" />
      <rect x="175.00" y="28.00" width="14.00" height="7.00" />
      <rect x="196.00" y="28.00" width="7.00" height="7.00" />
      <rect x="224.00" y="28.00" width="7.00" height="21.00" />
      <rect x="56.00" y="35.00" width="14.00" height="7.00" />
      <rect x="91.00" y="35.00" width="21.00" height="7.00" />
      <rect x="126.00" y="35.00" width="7.00" height="14.00" />
      <rect x="140.00" y="35.00" width="14.00" height="7.00" />
      <rect x="182.00" y="35.00" width="21.00" height="7.00" />
      <rect x="0.00" y="42.00" width="49.00" height="7.00" />
      <rect x="56.00" y="42.00" width="7.00" height="7.00" />
      <rect x="70.00" y="42.00" width="7.00" height="7.00" />
      <rect x="84.00" y="42.00" width="7.00" height="7.00" />
      <rect x="98.00" y="42.00" width="7.00" height="7.00" />
      <rect x="112.00" y="42.00" width="7.00" height="7.00" />
      <rect x="140.00" y="42.00" width="7.00" height="7.00" />
      <rect x="154.00" y="42.00" width="7.00" height="7.00" />
      <rect x="168.00" y="42.00" width="7.00" height="7.00" />
      <rect x="182.00" y="42.00" width="7.00" height="7.00" />
      <rect x="196.00" y="42.00" width="7.00" height="7.00" />
      <rect x="210.00" y="42.00" width="7.00" height="7.00" />
      <rect x="238.00" y="42.00" width="49.00" height="7.00" />
      <rect x="70.00" y="49.00" width="14.00" height="7.00" />
      <rect x="98.00" y="49.00" width="14.00" height="7.00" />
      <rect x="133.00" y="49.00" width="21.00" height="7.00" />
      <rect x="182.00" y="49.00" width="21.00" height="7.00" />
      <rect x="0.00" y="56.00" width="35.00" height="7.00" />
      <rect x="42.00" y="56.00" width="21.00" height="7.00" />
      <rect x="70.00" y="56.00" width="28.00" height="7.00" />
      <rect x="105.00" y="56.00" width="7.00" height="7.00" />
      <rect x="119.00" y="56.00" width="7.00" height="7.00" />
      <rect x="133.00" y="56.00" width="7.00" height="14.00" />
      <rect x="147.00" y="56.00" width="14.00" height="7.00" />
      <rect x="175.00" y="56.00" width="14.00" height="7.00" />
      <rect x="196.00" y="56.00" width="21.00" height="7.00" />
      <rect x="231.00" y="56.00" width="7.00" height="7.00" />
      <rect x="245.00" y="56.00" width="7.00" height="7.00" />
      <rect x="259.00" y="56.00" width="7.00" height="7.00" />
      <rect x="273.00" y="56.00" width="7.00" height="7.00" />
      <rect x="7.00" y="63.00" width="14.00" height="7.00" />
      <rect x="56.00" y="63.00" width="35.00" height="7.00" />
      <rect x="98.00" y="63.00" width="21.00" height="7.00" />
      <rect x="161.00" y="63.00" width="14.00" height="7.00" />
      <rect x="196.00" y="63.00" width="7.00" height="7.00" />
      <rect x="210.00" y="63.00" width="56.00" height="7.00" />
      <rect x="273.00" y="63.00" width="14.00" height="7.00" />
      <rect x="21.00" y="70.00" width="7.00" height="7.00" />
      <rect x="42.00" y="70.00" width="14.00" height="7.00" />
      <rect x="70.00" y="70.00" width="28.00" height="7.00" />
      <rect x="105.00" y="70.00" width="7.00" height="7.00" />
      <rect x="140.00" y="70.00" width="14.00" height="14.00" />
      <rect x="189.00" y="70.00" width="14.00" height="7.00" />
      <rect x="210.00" y="70.00" width="7.00" height="7.00" />
      <rect x="224.00" y="70.00" width="28.00" height="7.00" />
      <rect x="7.00" y="77.00" width="21.00" height="7.00" />
      <rect x="49.00" y="77.00" width="28.00" height="7.00" />
      <rect x="112.00" y="77.00" width="7.00" height="21.00" />
      <rect x="161.00" y="77.00" width="7.00" height="7.00" />
      <rect x="182.00" y="77.00" width="7.00" height="7.00" />
      <rect x="217.00" y="77.00" width="21.00" height="7.00" />
      <rect x="245.00" y="77.00" width="7.00" height="7.00" />
      <rect x="259.00" y="77.00" width="7.00" height="7.00" />
      <rect x="0.00" y="84.00" width="14.00" height="7.00" />
      <rect x="21.00" y="84.00" width="7.00" height="7.00" />
      <rect x="35.00" y="84.00" width="35.00" height="7.00" />
      <rect x="84.00" y="84.00" width="7.00" height="7.00" />
      <rect x="154.00" y="84.00" width="14.00" height="7.00" />
      <rect x="182.00" y="84.00" width="14.00" height="7.00" />
      <rect x="224.00" y="84.00" width="7.00" height="7.00" />
      <rect x="259.00" y="84.00" width="21.00" height="7.00" />
      <rect x="0.00" y="91.00" width="7.00" height="7.00" />
      <rect x="14.00" y="91.00" width="28.00" height="7.00" />
      <rect x="49.00" y="91.00" width="7.00" height="7.00" />
      <rect x="70.00" y="91.00" width="7.00" height="7.00" />
      <rect x="91.00" y="91.00" width="7.00" height="7.00" />
      <rect x="140.00" y="91.00" width="14.00" height="14.00" />
      <rect x="161.00" y="91.00" width="7.00" height="7.00" />
      <rect x="189.00" y="91.00" width="42.00" height="7.00" />
      <rect x="245.00" y="91.00" width="14.00" height="7.00" />
      <rect x="280.00" y="91.00" width="7.00" height="7.00" />
      <rect x="0.00" y="98.00" width="21.00" height="7.00" />
      <rect x="35.00" y="98.00" width="14.00" height="7.00" />
      <rect x="77.00" y="98.00" width="14.00" height="7.00" />
      <rect x="105.00" y="98.00" width="14.00" height="7.00" />
      <rect x="182.00" y="98.00" width="14.00" height="7.00" />
      <rect x="203.00" y="98.00" width="7.00" height="7.00" />
      <rect x="224.00" y="98.00" width="14.00" height="7.00" />
      <rect x="252.00" y="98.00" width="21.00" height="7.00" />
      <rect x="28.00" y="105.00" width="7.00" height="7.00" />
      <rect x="49.00" y="105.00" width="14.00" height="7.00" />
      <rect x="77.00" y="105.00" width="7.00" height="7.00" />
      <rect x="112.00" y="105.00" width="7.00" height="7.00" />
      <rect x="133.00" y="105.00" width="28.00" height="7.00" />
      <rect x="168.00" y="105.00" width="7.00" height="7.00" />
      <rect x="182.00" y="105.00" width="7.00" height="7.00" />
      <rect x="210.00" y="105.00" width="7.00" height="7.00" />
      <rect x="238.00" y="105.00" width="28.00" height="7.00" />
      <rect x="273.00" y="105.00" width="7.00" height="7.00" />
      <rect x="0.00" y="112.00" width="7.00" height="7.00" />
      <rect x="21.00" y="112.00" width="7.00" height="7.00" />
      <rect x="42.00" y="112.00" width="7.00" height="7.00" />
      <rect x="56.00" y="112.00" width="28.00" height="7.00" />
      <rect x="98.00" y="112.00" width="7.00" height="7.00" />
      <rect x="147.00" y="112.00" width="14.00" height="7.00" />
      <rect x="168.00" y="112.00" width="21.00" height="7.00" />
      <rect x="203.00" y="112.00" width="7.00" height="7.00" />
      <rect x="0.00" y="119.00" width="14.00" height="7.00" />
      <rect x="28.00" y="119.00" width="7.00" height="7.00" />
      <rect x="49.00" y="119.00" width="14.00" height="7.00" />
      <rect x="70.00" y="119.00" width="7.00" height="7.00" />
      <rect x="91.00" y="119.00" width="7.00" height="7.00" />
      <rect x="112.00" y="119.00" width="7.00" height="7.00" />
      <rect x="126.00" y="119.00" width="7.00" height="7.00" />
      <rect x="140.00" y="119.00" width="14.00" height="7.00" />
      <rect x="161.00" y="119.00" width="14.00" height="7.00" />
      <rect x="196.00" y="119.00" width="35.00" height="7.00" />
      <rect x="238.00" y="119.00" width="21.00" height="7.00" />
      <rect x="280.00" y="119.00" width="7.00" height="7.00" />
      <rect x="0.00" y="126.00" width="7.00" height="28.00" />
      <rect x="14.00" y="126.00" width="7.00" height="14.00" />
      <rect x="28.00" y="126.00" width="35.00" height="7.00" />
      <rect x="84.00" y="126.00" width="28.00" height="7.00" />
      <rect x="147.00" y="126.00" width="14.00" height="7.00" />
      <rect x="182.00" y="126.00" width="21.00" height="7.00" />
      <rect x="224.00" y="126.00" width="7.00" height="7.00" />
      <rect x="238.00" y="126.00" width="7.00" height="7.00" />
      <rect x="252.00" y="126.00" width="7.00" height="7.00" />
      <rect x="273.00" y="126.00" width="7.00" height="7.00" />
      <rect x="35.00" y="133.00" width="7.00" height="7.00" />
      <rect x="56.00" y="133.00" width="21.00" height="7.00" />
      <rect x="84.00" y="133.00" width="14.00" height="7.00" />
      <rect x="126.00" y="133.00" width="7.00" height="7.00" />
      <rect x="140.00" y="133.00" width="14.00" height="7.00" />
      <rect x="182.00" y="133.00" width="7.00" height="14.00" />
      <rect x="196.00" y="133.00" width="7.00" height="7.00" />
      <rect x="217.00" y="133.00" width="14.00" height="7.00" />
      <rect x="238.00" y="133.00" width="28.00" height="7.00" />
      <rect x="14.00" y="140.00" width="14.00" height="7.00" />
      <rect x="35.00" y="140.00" width="14.00" height="7.00" />
      <rect x="56.00" y="140.00" width="7.00" height="7.00" />
      <rect x="70.00" y="140.00" width="14.00" height="7.00" />
      <rect x="98.00" y="140.00" width="14.00" height="7.00" />
      <rect x="119.00" y="140.00" width="14.00" height="7.00" />
      <rect x="168.00" y="140.00" width="7.00" height="7.00" />
      <rect x="203.00" y="140.00" width="7.00" height="7.00" />
      <rect x="217.00" y="140.00" width="7.00" height="7.00" />
      <rect x="252.00" y="140.00" width="35.00" height="7.00" />
      <rect x="21.00" y="147.00" width="7.00" height="7.00" />
      <rect x="49.00" y="147.00" width="28.00" height="7.00" />
      <rect x="84.00" y="147.00" width="14.00" height="7.00" />
      <rect x="140.00" y="147.00" width="21.00" height="7.00" />
      <rect x="175.00" y="147.00" width="7.00" height="7.00" />
      <rect x="189.00" y="147.00" width="14.00" height="7.00" />
      <rect x="224.00" y="147.00" width="7.00" height="7.00" />
      <rect x="245.00" y="147.00" width="14.00" height="7.00" />
      <rect x="266.00" y="147.00" width="7.00" height="7.00" />
      <rect x="280.00" y="147.00" width="7.00" height="7.00" />
      <rect x="7.00" y="154.00" width="14.00" height="7.00" />
      <rect x="42.00" y="154.00" width="14.00" height="7.00" />
      <rect x="63.00" y="154.00" width="7.00" height="7.00" />
      <rect x="98.00" y="154.00" width="14.00" height="7.00" />
      <rect x="119.00" y="154.00" width="7.00" height="7.00" />
      <rect x="140.00" y="154.00" width="7.00" height="7.00" />
      <rect x="175.00" y="154.00" width="42.00" height="7.00" />
      <rect x="231.00" y="154.00" width="7.00" height="7.00" />
      <rect x="7.00" y="161.00" width="21.00" height="7.00" />
      <rect x="49.00" y="161.00" width="14.00" height="7.00" />
      <rect x="84.00" y="161.00" width="7.00" height="7.00" />
      <rect x="133.00" y="161.00" width="28.00" height="7.00" />
      <rect x="189.00" y="161.00" width="14.00" height="7.00" />
      <rect x="238.00" y="161.00" width="7.00" height="7.00" />
      <rect x="259.00" y="161.00" width="7.00" height="7.00" />
      <rect x="273.00" y="161.00" width="7.00" height="7.00" />
      <rect x="0.00" y="168.00" width="49.00" height="7.00" />
      <rect x="91.00" y="168.00" width="98.00" height="7.00" />
      <rect x="203.00" y="168.00" width="7.00" height="7.00" />
      <rect x="231.00" y="168.00" width="7.00" height="7.00" />
      <rect x="266.00" y="168.00" width="21.00" height="7.00" />
      <rect x="0.00" y="175.00" width="7.00" height="7.00" />
      <rect x="14.00" y="175.00" width="7.00" height="7.00" />
      <rect x="28.00" y="175.00" width="7.00" height="7.00" />
      <rect x="56.00" y="175.00" width="21.00" height="7.00" />
      <rect x="98.00" y="175.00" width="7.00" height="7.00" />
      <rect x="140.00" y="175.00" width="28.00" height="7.00" />
      <rect x="182.00" y="175.00" width="7.00" height="7.00" />
      <rect x="196.00" y="175.00" width="63.00" height="7.00" />
      <rect x="273.00" y="175.00" width="7.00" height="7.00" />
      <rect x="14.00" y="182.00" width="14.00" height="7.00" />
      <rect x="42.00" y="182.00" width="14.00" height="7.00" />
      <rect x="63.00" y="182.00" width="7.00" height="7.00" />
      <rect x="105.00" y="182.00" width="28.00" height="7.00" />
      <rect x="147.00" y="182.00" width="7.00" height="7.00" />
      <rect x="182.00" y="182.00" width="14.00" height="7.00" />
      <rect x="203.00" y="182.00" width="14.00" height="7.00" />
      <rect x="224.00" y="182.00" width="14.00" height="7.00" />
      <rect x="245.00" y="182.00" width="7.00" height="7.00" />
      <rect x="259.00" y="182.00" width="14.00" height="7.00" />
      <rect x="0.00" y="189.00" width="42.00" height="7.00" />
      <rect x="56.00" y="189.00" width="7.00" height="7.00" />
      <rect x="77.00" y="189.00" width="7.00" height="7.00" />
      <rect x="98.00" y="189.00" width="7.00" height="7.00" />
      <rect x="112.00" y="189.00" width="7.00" height="7.00" />
      <rect x="133.00" y="189.00" width="21.00" height="7.00" />
      <rect x="161.00" y="189.00" width="7.00" height="7.00" />
      <rect x="182.00" y="189.00" width="21.00" height="7.00" />
      <rect x="210.00" y="189.00" width="42.00" height="7.00" />
      <rect x="280.00" y="189.00" width="7.00" height="14.00" />
      <rect x="14.00" y="196.00" width="7.00" height="7.00" />
      <rect x="35.00" y="196.00" width="14.00" height="7.00" />
      <rect x="70.00" y="196.00" width="7.00" height="14.00" />
      <rect x="84.00" y="196.00" width="7.00" height="7.00" />
      <rect x="105.00" y="196.00" width="7.00" height="7.00" />
      <rect x="119.00" y="196.00" width="7.00" height="7.00" />
      <rect x="140.00" y="196.00" width="7.00" height="14.00" />
      <rect x="154.00" y="196.00" width="21.00" height="7.00" />
      <rect x="182.00" y="196.00" width="14.00" height="7.00" />
      <rect x="203.00" y="196.00" width="28.00" height="7.00" />
      <rect x="245.00" y="196.00" width="7.00" height="7.00" />
      <rect x="259.00" y="196.00" width="14.00" height="7.00" />
      <rect x="0.00" y="203.00" width="14.00" height="7.00" />
      <rect x="21.00" y="203.00" width="7.00" height="7.00" />
      <rect x="91.00" y="203.00" width="14.00" height="7.00" />
      <rect x="112.00" y="203.00" width="7.00" height="7.00" />
      <rect x="161.00" y="203.00" width="7.00" height="7.00" />
      <rect x="182.00" y="203.00" width="7.00" height="7.00" />
      <rect x="203.00" y="203.00" width="7.00" height="7.00" />
      <rect x="224.00" y="203.00" width="14.00" height="7.00" />
      <rect x="245.00" y="203.00" width="42.00" height="7.00" />
      <rect x="0.00" y="210.00" width="7.00" height="21.00" />
      <rect x="21.00" y="210.00" width="28.00" height="7.00" />
      <rect x="56.00" y="210.00" width="7.00" height="7.00" />
      <rect x="70.00" y="210.00" width="21.00" height="7.00" />
      <rect x="105.00" y="210.00" width="21.00" height="7.00" />
      <rect x="147.00" y="210.00" width="7.00" height="14.00" />
      <rect x="182.00" y="210.00" width="28.00" height="7.00" />
      <rect x="224.00" y="210.00" width="7.00" height="7.00" />
      <rect x="238.00" y="210.00" width="7.00" height="7.00" />
      <rect x="266.00" y="210.00" width="7.00" height="7.00" />
      <rect x="35.00" y="217.00" width="7.00" height="7.00" />
      <rect x="49.00" y="217.00" width="7.00" height="7.00" />
      <rect x="63.00" y="217.00" width="21.00" height="7.00" />
      <rect x="98.00" y="217.00" width="7.00" height="7.00" />
      <rect x="112.00" y="217.00" width="7.00" height="7.00" />
      <rect x="133.00" y="217.00" width="7.00" height="7.00" />
      <rect x="161.00" y="217.00" width="7.00" height="7.00" />
      <rect x="196.00" y="217.00" width="7.00" height="7.00" />
      <rect x="231.00" y="217.00" width="14.00" height="7.00" />
      <rect x="259.00" y="217.00" width="7.00" height="7.00" />
      <rect x="280.00" y="217.00" width="7.00" height="14.00" />
      <rect x="14.00" y="224.00" width="7.00" height="7.00" />
      <rect x="28.00" y="224.00" width="7.00" height="7.00" />
      <rect x="42.00" y="224.00" width="7.00" height="7.00" />
      <rect x="70.00" y="224.00" width="56.00" height="7.00" />
      <rect x="140.00" y="224.00" width="7.00" height="7.00" />
      <rect x="168.00" y="224.00" width="14.00" height="7.00" />
      <rect x="189.00" y="224.00" width="7.00" height="7.00" />
      <rect x="203.00" y="224.00" width="7.00" height="7.00" />
      <rect x="224.00" y="224.00" width="35.00" height="7.00" />
      <rect x="266.00" y="224.00" width="7.00" height="21.00" />
      <rect x="56.00" y="231.00" width="28.00" height="7.00" />
      <rect x="91.00" y="231.00" width="7.00" height="7.00" />
      <rect x="126.00" y="231.00" width="28.00" height="7.00" />
      <rect x="161.00" y="231.00" width="14.00" height="7.00" />
      <rect x="196.00" y="231.00" width="21.00" height="7.00" />
      <rect x="224.00" y="231.00" width="7.00" height="7.00" />
      <rect x="252.00" y="231.00" width="7.00" height="21.00" />
      <rect x="0.00" y="238.00" width="49.00" height="7.00" />
      <rect x="56.00" y="238.00" width="21.00" height="7.00" />
      <rect x="91.00" y="238.00" width="21.00" height="7.00" />
      <rect x="126.00" y="238.00" width="7.00" height="7.00" />
      <rect x="140.00" y="238.00" width="7.00" height="7.00" />
      <rect x="168.00" y="238.00" width="7.00" height="7.00" />
      <rect x="182.00" y="238.00" width="21.00" height="7.00" />
      <rect x="210.00" y="238.00" width="21.00" height="14.00" />
      <rect x="238.00" y="238.00" width="7.00" height="7.00" />
      <rect x="0.00" y="245.00" width="7.00" height="35.00" />
      <rect x="42.00" y="245.00" width="7.00" height="35.00" />
      <rect x="77.00" y="245.00" width="21.00" height="7.00" />
      <rect x="105.00" y="245.00" width="14.00" height="7.00" />
      <rect x="147.00" y="245.00" width="14.00" height="7.00" />
      <rect x="182.00" y="245.00" width="7.00" height="14.00" />
      <rect x="196.00" y="245.00" width="7.00" height="14.00" />
      <rect x="14.00" y="252.00" width="21.00" height="21.00" />
      <rect x="56.00" y="252.00" width="7.00" height="28.00" />
      <rect x="77.00" y="252.00" width="7.00" height="7.00" />
      <rect x="98.00" y="252.00" width="7.00" height="7.00" />
      <rect x="112.00" y="252.00" width="21.00" height="7.00" />
      <rect x="154.00" y="252.00" width="7.00" height="7.00" />
      <rect x="224.00" y="252.00" width="35.00" height="7.00" />
      <rect x="266.00" y="252.00" width="14.00" height="7.00" />
      <rect x="70.00" y="259.00" width="7.00" height="7.00" />
      <rect x="84.00" y="259.00" width="14.00" height="7.00" />
      <rect x="105.00" y="259.00" width="21.00" height="14.00" />
      <rect x="140.00" y="259.00" width="7.00" height="7.00" />
      <rect x="175.00" y="259.00" width="7.00" height="7.00" />
      <rect x="203.00" y="259.00" width="28.00" height="7.00" />
      <rect x="259.00" y="259.00" width="7.00" height="7.00" />
      <rect x="280.00" y="259.00" width="7.00" height="7.00" />
      <rect x="140.00" y="266.00" width="21.00" height="7.00" />
      <rect x="168.00" y="266.00" width="35.00" height="7.00" />
      <rect x="217.00" y="266.00" width="7.00" height="14.00" />
      <rect x="231.00" y="266.00" width="14.00" height="7.00" />
      <rect x="252.00" y="266.00" width="21.00" height="7.00" />
      <rect x="84.00" y="273.00" width="7.00" height="7.00" />
      <rect x="126.00" y="273.00" width="14.00" height="7.00" />
      <rect x="147.00" y="273.00" width="21.00" height="7.00" />
      <rect x="182.00" y="273.00" width="14.00" height="7.00" />
      <rect x="245.00" y="273.00" width="7.00" height="14.00" />
      <rect x="259.00" y="273.00" width="7.00" height="7.00" />
      <rect x="273.00" y="273.00" width="7.00" height="7.00" />
      <rect x="0.00" y="280.00" width="49.00" height="7.00" />
      <rect x="56.00" y="280.00" width="14.00" height="7.00" />
      <rect x="84.00" y="280.00" width="28.00" height="7.00" />
      <rect x="133.00" y="280.00" width="14.00" height="7.00" />
      <rect x="168.00" y="280.00" width="28.00" height="7.00" />
      <rect x="203.00" y="280.00" width="21.00" height="7.00" />
      <rect x="266.00" y="280.00" width="7.00" height="7.00" />
   </g>
</svg>
